<svg width="50" height="48" viewBox="0 0 50 48" fill="none" xmlns="http://www.w3.org/2000/svg">
<rect width="50" height="48" fill="#E5E5E5"/>
<rect width="1440" height="1024" transform="translate(-822 -534)" fill="white"/>
<g filter="url(#filter0_d_1_649)">
<rect x="-29" y="-28" width="426" height="108" rx="6" fill="white"/>
</g>
<path d="M1.09543 18.2329L25 0.865247L48.9046 18.2329L39.7738 46.3344H10.2262L1.09543 18.2329Z" stroke="#1565D8" stroke-width="1.4"/>
<path fill-rule="evenodd" clip-rule="evenodd" d="M18.3333 22.6667C17.873 22.6667 17.4999 23.0398 17.4999 23.5V31.8333C17.4999 32.2936 17.873 32.6667 18.3333 32.6667H31.6666C32.1268 32.6667 32.4999 32.2936 32.4999 31.8333V23.5C32.4999 23.0398 32.1268 22.6667 31.6666 22.6667H18.3333ZM15.8333 23.5C15.8333 22.1193 16.9525 21 18.3333 21H31.6666C33.0473 21 34.1666 22.1193 34.1666 23.5V31.8333C34.1666 33.214 33.0473 34.3333 31.6666 34.3333H18.3333C16.9525 34.3333 15.8333 33.214 15.8333 31.8333V23.5Z" fill="#1565D8"/>
<path fill-rule="evenodd" clip-rule="evenodd" d="M21.5655 18.3989C22.0343 17.9301 22.6702 17.6667 23.3333 17.6667H26.6666C27.3296 17.6667 27.9655 17.9301 28.4344 18.3989C28.9032 18.8677 29.1666 19.5036 29.1666 20.1667V33.5C29.1666 33.9602 28.7935 34.3333 28.3333 34.3333C27.873 34.3333 27.4999 33.9602 27.4999 33.5V20.1667C27.4999 19.9457 27.4121 19.7337 27.2558 19.5774C27.0996 19.4211 26.8876 19.3333 26.6666 19.3333H23.3333C23.1122 19.3333 22.9003 19.4211 22.744 19.5774C22.5877 19.7337 22.4999 19.9457 22.4999 20.1667V33.5C22.4999 33.9602 22.1268 34.3333 21.6666 34.3333C21.2063 34.3333 20.8333 33.9602 20.8333 33.5V20.1667C20.8333 19.5036 21.0966 18.8677 21.5655 18.3989Z" fill="#1565D8"/>
<defs>
<filter id="filter0_d_1_649" x="-44" y="-41" width="456" height="138" filterUnits="userSpaceOnUse" color-interpolation-filters="sRGB">
<feFlood flood-opacity="0" result="BackgroundImageFix"/>
<feColorMatrix in="SourceAlpha" type="matrix" values="0 0 0 0 0 0 0 0 0 0 0 0 0 0 0 0 0 0 127 0" result="hardAlpha"/>
<feMorphology radius="1" operator="dilate" in="SourceAlpha" result="effect1_dropShadow_1_649"/>
<feOffset dy="2"/>
<feGaussianBlur stdDeviation="7"/>
<feColorMatrix type="matrix" values="0 0 0 0 0 0 0 0 0 0 0 0 0 0 0 0 0 0 0.06 0"/>
<feBlend mode="normal" in2="BackgroundImageFix" result="effect1_dropShadow_1_649"/>
<feBlend mode="normal" in="SourceGraphic" in2="effect1_dropShadow_1_649" result="shape"/>
</filter>
</defs>
</svg>
